<mxfile host="app.diagrams.net" modified="2021-03-10T12:01:05.884Z" agent="5.0 (X11; Linux x86_64) AppleWebKit/537.36 (KHTML, like Gecko) Chrome/87.0.4280.141 Safari/537.36" etag="z2i7S6In-MdsoUzOV5be" version="14.4.6" type="github">
  <diagram id="MEJKP9v4bqbGwgVvIlsf" name="Page-1">
    <mxGraphModel dx="1186" dy="730" grid="1" gridSize="10" guides="1" tooltips="1" connect="1" arrows="1" fold="1" page="1" pageScale="1" pageWidth="2000" pageHeight="2000" math="0" shadow="0">
      <root>
        <mxCell id="0" />
        <mxCell id="1" parent="0" />
        <mxCell id="7tLrLcJMLmvO0vqBCrBO-10" value="m" style="edgeStyle=none;orthogonalLoop=1;jettySize=auto;html=1;endArrow=none;fontSize=15;" edge="1" parent="1" source="7tLrLcJMLmvO0vqBCrBO-4" target="7tLrLcJMLmvO0vqBCrBO-9">
          <mxGeometry relative="1" as="geometry" />
        </mxCell>
        <mxCell id="7tLrLcJMLmvO0vqBCrBO-14" value="n" style="edgeStyle=none;orthogonalLoop=1;jettySize=auto;html=1;endArrow=none;entryX=1;entryY=0.5;entryDx=0;entryDy=0;fontSize=15;" edge="1" parent="1" source="7tLrLcJMLmvO0vqBCrBO-4" target="7tLrLcJMLmvO0vqBCrBO-13">
          <mxGeometry relative="1" as="geometry">
            <mxPoint x="670" y="230" as="targetPoint" />
          </mxGeometry>
        </mxCell>
        <mxCell id="7tLrLcJMLmvO0vqBCrBO-33" value="1" style="edgeStyle=none;orthogonalLoop=1;jettySize=auto;html=1;endArrow=none;fontSize=15;" edge="1" parent="1" source="7tLrLcJMLmvO0vqBCrBO-4" target="7tLrLcJMLmvO0vqBCrBO-27">
          <mxGeometry relative="1" as="geometry" />
        </mxCell>
        <mxCell id="7tLrLcJMLmvO0vqBCrBO-52" style="edgeStyle=none;orthogonalLoop=1;jettySize=auto;html=1;endArrow=none;fontSize=15;" edge="1" parent="1" source="7tLrLcJMLmvO0vqBCrBO-4" target="7tLrLcJMLmvO0vqBCrBO-53">
          <mxGeometry relative="1" as="geometry">
            <mxPoint x="730" y="230" as="targetPoint" />
          </mxGeometry>
        </mxCell>
        <mxCell id="7tLrLcJMLmvO0vqBCrBO-4" value="user" style="rounded=0;whiteSpace=wrap;html=1;fontSize=15;" vertex="1" parent="1">
          <mxGeometry x="560" y="290" width="120" height="60" as="geometry" />
        </mxCell>
        <mxCell id="7tLrLcJMLmvO0vqBCrBO-11" value="n" style="edgeStyle=none;orthogonalLoop=1;jettySize=auto;html=1;endArrow=none;fontSize=15;" edge="1" parent="1" source="7tLrLcJMLmvO0vqBCrBO-5" target="7tLrLcJMLmvO0vqBCrBO-6">
          <mxGeometry relative="1" as="geometry" />
        </mxCell>
        <mxCell id="7tLrLcJMLmvO0vqBCrBO-12" value="n" style="edgeStyle=none;orthogonalLoop=1;jettySize=auto;html=1;endArrow=none;fontSize=15;" edge="1" parent="1" source="7tLrLcJMLmvO0vqBCrBO-5" target="7tLrLcJMLmvO0vqBCrBO-9">
          <mxGeometry relative="1" as="geometry" />
        </mxCell>
        <mxCell id="7tLrLcJMLmvO0vqBCrBO-78" value="" style="edgeStyle=none;orthogonalLoop=1;jettySize=auto;html=1;endArrow=none;fontSize=15;" edge="1" parent="1" source="7tLrLcJMLmvO0vqBCrBO-5" target="7tLrLcJMLmvO0vqBCrBO-77">
          <mxGeometry relative="1" as="geometry" />
        </mxCell>
        <mxCell id="7tLrLcJMLmvO0vqBCrBO-80" value="" style="edgeStyle=none;orthogonalLoop=1;jettySize=auto;html=1;endArrow=none;fontSize=15;" edge="1" parent="1" source="7tLrLcJMLmvO0vqBCrBO-5" target="7tLrLcJMLmvO0vqBCrBO-79">
          <mxGeometry relative="1" as="geometry" />
        </mxCell>
        <mxCell id="7tLrLcJMLmvO0vqBCrBO-82" style="edgeStyle=none;orthogonalLoop=1;jettySize=auto;html=1;endArrow=none;fontSize=15;" edge="1" parent="1" source="7tLrLcJMLmvO0vqBCrBO-5" target="7tLrLcJMLmvO0vqBCrBO-83">
          <mxGeometry relative="1" as="geometry">
            <mxPoint x="600" y="660" as="targetPoint" />
          </mxGeometry>
        </mxCell>
        <mxCell id="7tLrLcJMLmvO0vqBCrBO-84" style="edgeStyle=none;orthogonalLoop=1;jettySize=auto;html=1;endArrow=none;fontSize=15;" edge="1" parent="1" source="7tLrLcJMLmvO0vqBCrBO-5" target="7tLrLcJMLmvO0vqBCrBO-85">
          <mxGeometry relative="1" as="geometry">
            <mxPoint x="480" y="650" as="targetPoint" />
          </mxGeometry>
        </mxCell>
        <mxCell id="7tLrLcJMLmvO0vqBCrBO-5" value="post" style="rounded=0;whiteSpace=wrap;html=1;fontSize=15;" vertex="1" parent="1">
          <mxGeometry x="560" y="530" width="120" height="60" as="geometry" />
        </mxCell>
        <mxCell id="7tLrLcJMLmvO0vqBCrBO-6" value="creates" style="rhombus;whiteSpace=wrap;html=1;rounded=0;fontSize=15;" vertex="1" parent="1">
          <mxGeometry x="520" y="400" width="80" height="80" as="geometry" />
        </mxCell>
        <mxCell id="7tLrLcJMLmvO0vqBCrBO-8" value="1" style="endArrow=none;html=1;fontSize=15;" edge="1" parent="1" source="7tLrLcJMLmvO0vqBCrBO-6" target="7tLrLcJMLmvO0vqBCrBO-4">
          <mxGeometry width="50" height="50" relative="1" as="geometry">
            <mxPoint x="770" y="660" as="sourcePoint" />
            <mxPoint x="820" y="610" as="targetPoint" />
          </mxGeometry>
        </mxCell>
        <mxCell id="7tLrLcJMLmvO0vqBCrBO-9" value="likes" style="rhombus;whiteSpace=wrap;html=1;rounded=0;fontSize=15;" vertex="1" parent="1">
          <mxGeometry x="640" y="400" width="80" height="80" as="geometry" />
        </mxCell>
        <mxCell id="7tLrLcJMLmvO0vqBCrBO-15" value="m" style="edgeStyle=none;orthogonalLoop=1;jettySize=auto;html=1;endArrow=none;exitX=0;exitY=0.5;exitDx=0;exitDy=0;fontSize=15;" edge="1" parent="1" source="7tLrLcJMLmvO0vqBCrBO-13" target="7tLrLcJMLmvO0vqBCrBO-4">
          <mxGeometry relative="1" as="geometry" />
        </mxCell>
        <mxCell id="7tLrLcJMLmvO0vqBCrBO-13" value="follows" style="rhombus;whiteSpace=wrap;html=1;rounded=0;fontSize=15;" vertex="1" parent="1">
          <mxGeometry x="580" y="170" width="80" height="80" as="geometry" />
        </mxCell>
        <mxCell id="7tLrLcJMLmvO0vqBCrBO-21" value="1" style="edgeStyle=none;orthogonalLoop=1;jettySize=auto;html=1;endArrow=none;fontSize=15;shape=link;" edge="1" parent="1" source="7tLrLcJMLmvO0vqBCrBO-16" target="7tLrLcJMLmvO0vqBCrBO-19">
          <mxGeometry relative="1" as="geometry" />
        </mxCell>
        <mxCell id="7tLrLcJMLmvO0vqBCrBO-45" value="1" style="edgeStyle=none;orthogonalLoop=1;jettySize=auto;html=1;endArrow=none;fontSize=15;shape=link;" edge="1" parent="1" source="7tLrLcJMLmvO0vqBCrBO-16" target="7tLrLcJMLmvO0vqBCrBO-44">
          <mxGeometry relative="1" as="geometry" />
        </mxCell>
        <mxCell id="7tLrLcJMLmvO0vqBCrBO-55" value="" style="edgeStyle=none;orthogonalLoop=1;jettySize=auto;html=1;endArrow=none;fontSize=15;" edge="1" parent="1" source="7tLrLcJMLmvO0vqBCrBO-16" target="7tLrLcJMLmvO0vqBCrBO-54">
          <mxGeometry relative="1" as="geometry" />
        </mxCell>
        <mxCell id="7tLrLcJMLmvO0vqBCrBO-57" style="edgeStyle=none;orthogonalLoop=1;jettySize=auto;html=1;endArrow=none;fontSize=15;" edge="1" parent="1" source="7tLrLcJMLmvO0vqBCrBO-16" target="7tLrLcJMLmvO0vqBCrBO-58">
          <mxGeometry relative="1" as="geometry">
            <mxPoint x="1050" y="260" as="targetPoint" />
          </mxGeometry>
        </mxCell>
        <mxCell id="7tLrLcJMLmvO0vqBCrBO-59" style="edgeStyle=none;orthogonalLoop=1;jettySize=auto;html=1;endArrow=none;fontSize=15;" edge="1" parent="1" source="7tLrLcJMLmvO0vqBCrBO-16" target="7tLrLcJMLmvO0vqBCrBO-60">
          <mxGeometry relative="1" as="geometry">
            <mxPoint x="1040" y="340" as="targetPoint" />
          </mxGeometry>
        </mxCell>
        <mxCell id="7tLrLcJMLmvO0vqBCrBO-16" value="userProfile" style="shape=ext;margin=3;double=1;whiteSpace=wrap;html=1;align=center;fontSize=15;" vertex="1" parent="1">
          <mxGeometry x="840" y="290" width="120" height="60" as="geometry" />
        </mxCell>
        <mxCell id="7tLrLcJMLmvO0vqBCrBO-47" value="1" style="edgeStyle=none;shape=link;orthogonalLoop=1;jettySize=auto;html=1;endArrow=none;fontSize=15;" edge="1" parent="1" source="7tLrLcJMLmvO0vqBCrBO-19" target="7tLrLcJMLmvO0vqBCrBO-4">
          <mxGeometry relative="1" as="geometry" />
        </mxCell>
        <mxCell id="7tLrLcJMLmvO0vqBCrBO-19" value="is" style="rhombus;whiteSpace=wrap;html=1;rounded=0;fontSize=15;" vertex="1" parent="1">
          <mxGeometry x="720" y="280" width="80" height="80" as="geometry" />
        </mxCell>
        <mxCell id="7tLrLcJMLmvO0vqBCrBO-46" value="1" style="edgeStyle=none;orthogonalLoop=1;jettySize=auto;html=1;endArrow=none;fontSize=15;shape=link;" edge="1" parent="1" source="7tLrLcJMLmvO0vqBCrBO-48" target="7tLrLcJMLmvO0vqBCrBO-44">
          <mxGeometry relative="1" as="geometry">
            <mxPoint x="900" y="530" as="sourcePoint" />
          </mxGeometry>
        </mxCell>
        <mxCell id="7tLrLcJMLmvO0vqBCrBO-29" value="n" style="edgeStyle=none;orthogonalLoop=1;jettySize=auto;html=1;endArrow=none;fontSize=15;" edge="1" parent="1" source="7tLrLcJMLmvO0vqBCrBO-25" target="7tLrLcJMLmvO0vqBCrBO-28">
          <mxGeometry relative="1" as="geometry" />
        </mxCell>
        <mxCell id="7tLrLcJMLmvO0vqBCrBO-87" value="" style="edgeStyle=none;orthogonalLoop=1;jettySize=auto;html=1;endArrow=none;fontSize=15;" edge="1" parent="1" source="7tLrLcJMLmvO0vqBCrBO-25" target="7tLrLcJMLmvO0vqBCrBO-86">
          <mxGeometry relative="1" as="geometry" />
        </mxCell>
        <mxCell id="7tLrLcJMLmvO0vqBCrBO-89" value="" style="edgeStyle=none;orthogonalLoop=1;jettySize=auto;html=1;endArrow=none;fontSize=15;" edge="1" parent="1" source="7tLrLcJMLmvO0vqBCrBO-25" target="7tLrLcJMLmvO0vqBCrBO-88">
          <mxGeometry relative="1" as="geometry" />
        </mxCell>
        <mxCell id="7tLrLcJMLmvO0vqBCrBO-90" style="edgeStyle=none;orthogonalLoop=1;jettySize=auto;html=1;endArrow=none;fontSize=15;" edge="1" parent="1" source="7tLrLcJMLmvO0vqBCrBO-25" target="7tLrLcJMLmvO0vqBCrBO-91">
          <mxGeometry relative="1" as="geometry">
            <mxPoint x="260" y="520" as="targetPoint" />
          </mxGeometry>
        </mxCell>
        <mxCell id="7tLrLcJMLmvO0vqBCrBO-92" style="edgeStyle=none;orthogonalLoop=1;jettySize=auto;html=1;endArrow=none;fontSize=15;" edge="1" parent="1" source="7tLrLcJMLmvO0vqBCrBO-25" target="7tLrLcJMLmvO0vqBCrBO-93">
          <mxGeometry relative="1" as="geometry">
            <mxPoint x="290" y="580" as="targetPoint" />
          </mxGeometry>
        </mxCell>
        <mxCell id="7tLrLcJMLmvO0vqBCrBO-25" value="comment" style="rounded=0;whiteSpace=wrap;html=1;fontSize=15;" vertex="1" parent="1">
          <mxGeometry x="360" y="410" width="120" height="60" as="geometry" />
        </mxCell>
        <mxCell id="7tLrLcJMLmvO0vqBCrBO-30" value="m" style="edgeStyle=none;orthogonalLoop=1;jettySize=auto;html=1;endArrow=none;fontSize=15;" edge="1" parent="1" source="7tLrLcJMLmvO0vqBCrBO-27" target="7tLrLcJMLmvO0vqBCrBO-25">
          <mxGeometry relative="1" as="geometry" />
        </mxCell>
        <mxCell id="7tLrLcJMLmvO0vqBCrBO-27" value="creates" style="rhombus;whiteSpace=wrap;html=1;fontSize=15;" vertex="1" parent="1">
          <mxGeometry x="350" y="250" width="80" height="80" as="geometry" />
        </mxCell>
        <mxCell id="7tLrLcJMLmvO0vqBCrBO-32" value="1" style="edgeStyle=none;orthogonalLoop=1;jettySize=auto;html=1;endArrow=none;fontSize=15;" edge="1" parent="1" source="7tLrLcJMLmvO0vqBCrBO-28" target="7tLrLcJMLmvO0vqBCrBO-5">
          <mxGeometry relative="1" as="geometry" />
        </mxCell>
        <mxCell id="7tLrLcJMLmvO0vqBCrBO-28" value="respond" style="rhombus;whiteSpace=wrap;html=1;fontSize=15;" vertex="1" parent="1">
          <mxGeometry x="350" y="550" width="80" height="80" as="geometry" />
        </mxCell>
        <mxCell id="7tLrLcJMLmvO0vqBCrBO-35" value="m" style="edgeStyle=none;orthogonalLoop=1;jettySize=auto;html=1;endArrow=none;fontSize=15;" edge="1" parent="1" target="7tLrLcJMLmvO0vqBCrBO-37" source="7tLrLcJMLmvO0vqBCrBO-4">
          <mxGeometry relative="1" as="geometry">
            <mxPoint x="610" y="395" as="sourcePoint" />
          </mxGeometry>
        </mxCell>
        <mxCell id="7tLrLcJMLmvO0vqBCrBO-36" value="n" style="edgeStyle=none;orthogonalLoop=1;jettySize=auto;html=1;endArrow=none;fontSize=15;" edge="1" parent="1" source="7tLrLcJMLmvO0vqBCrBO-37" target="7tLrLcJMLmvO0vqBCrBO-25">
          <mxGeometry relative="1" as="geometry">
            <mxPoint x="445" y="440" as="targetPoint" />
          </mxGeometry>
        </mxCell>
        <mxCell id="7tLrLcJMLmvO0vqBCrBO-37" value="likes" style="rhombus;whiteSpace=wrap;html=1;fontSize=15;" vertex="1" parent="1">
          <mxGeometry x="420" y="310" width="80" height="80" as="geometry" />
        </mxCell>
        <mxCell id="7tLrLcJMLmvO0vqBCrBO-44" value="have" style="rhombus;whiteSpace=wrap;html=1;fontSize=15;" vertex="1" parent="1">
          <mxGeometry x="860" y="400" width="80" height="80" as="geometry" />
        </mxCell>
        <mxCell id="7tLrLcJMLmvO0vqBCrBO-68" value="" style="edgeStyle=none;orthogonalLoop=1;jettySize=auto;html=1;endArrow=none;fontSize=15;" edge="1" parent="1" source="7tLrLcJMLmvO0vqBCrBO-48" target="7tLrLcJMLmvO0vqBCrBO-67">
          <mxGeometry relative="1" as="geometry" />
        </mxCell>
        <mxCell id="7tLrLcJMLmvO0vqBCrBO-69" style="edgeStyle=none;orthogonalLoop=1;jettySize=auto;html=1;endArrow=none;fontSize=15;" edge="1" parent="1" source="7tLrLcJMLmvO0vqBCrBO-48" target="7tLrLcJMLmvO0vqBCrBO-70">
          <mxGeometry relative="1" as="geometry">
            <mxPoint x="1050" y="660" as="targetPoint" />
          </mxGeometry>
        </mxCell>
        <mxCell id="7tLrLcJMLmvO0vqBCrBO-72" value="" style="edgeStyle=none;orthogonalLoop=1;jettySize=auto;html=1;endArrow=none;fontSize=15;" edge="1" parent="1" source="7tLrLcJMLmvO0vqBCrBO-48" target="7tLrLcJMLmvO0vqBCrBO-71">
          <mxGeometry relative="1" as="geometry" />
        </mxCell>
        <mxCell id="7tLrLcJMLmvO0vqBCrBO-74" value="" style="edgeStyle=none;orthogonalLoop=1;jettySize=auto;html=1;endArrow=none;fontSize=15;" edge="1" parent="1" source="7tLrLcJMLmvO0vqBCrBO-48" target="7tLrLcJMLmvO0vqBCrBO-73">
          <mxGeometry relative="1" as="geometry" />
        </mxCell>
        <mxCell id="7tLrLcJMLmvO0vqBCrBO-76" value="" style="edgeStyle=none;orthogonalLoop=1;jettySize=auto;html=1;endArrow=none;fontSize=15;" edge="1" parent="1" source="7tLrLcJMLmvO0vqBCrBO-48" target="7tLrLcJMLmvO0vqBCrBO-75">
          <mxGeometry relative="1" as="geometry" />
        </mxCell>
        <mxCell id="7tLrLcJMLmvO0vqBCrBO-48" value="address" style="shape=ext;margin=3;double=1;whiteSpace=wrap;html=1;align=center;fontSize=15;" vertex="1" parent="1">
          <mxGeometry x="840" y="530" width="120" height="60" as="geometry" />
        </mxCell>
        <mxCell id="7tLrLcJMLmvO0vqBCrBO-51" style="edgeStyle=none;orthogonalLoop=1;jettySize=auto;html=1;endArrow=none;fontSize=15;" edge="1" parent="1" source="7tLrLcJMLmvO0vqBCrBO-49" target="7tLrLcJMLmvO0vqBCrBO-4">
          <mxGeometry relative="1" as="geometry" />
        </mxCell>
        <mxCell id="7tLrLcJMLmvO0vqBCrBO-49" value="&lt;u&gt;email&lt;/u&gt;" style="ellipse;whiteSpace=wrap;html=1;fontSize=15;" vertex="1" parent="1">
          <mxGeometry x="430" y="180" width="120" height="80" as="geometry" />
        </mxCell>
        <mxCell id="7tLrLcJMLmvO0vqBCrBO-53" value="passwordHash" style="ellipse;whiteSpace=wrap;html=1;fontSize=15;" vertex="1" parent="1">
          <mxGeometry x="690" y="180" width="120" height="80" as="geometry" />
        </mxCell>
        <mxCell id="7tLrLcJMLmvO0vqBCrBO-54" value="firstName" style="ellipse;whiteSpace=wrap;html=1;fontSize=15;" vertex="1" parent="1">
          <mxGeometry x="830" y="180" width="120" height="80" as="geometry" />
        </mxCell>
        <mxCell id="7tLrLcJMLmvO0vqBCrBO-58" value="lastName" style="ellipse;whiteSpace=wrap;html=1;fontSize=15;" vertex="1" parent="1">
          <mxGeometry x="940" y="130" width="120" height="80" as="geometry" />
        </mxCell>
        <mxCell id="7tLrLcJMLmvO0vqBCrBO-60" value="profileCreated" style="ellipse;whiteSpace=wrap;html=1;fontSize=15;" vertex="1" parent="1">
          <mxGeometry x="990" y="290" width="120" height="80" as="geometry" />
        </mxCell>
        <mxCell id="7tLrLcJMLmvO0vqBCrBO-62" style="edgeStyle=none;orthogonalLoop=1;jettySize=auto;html=1;endArrow=none;fontSize=15;" edge="1" parent="1" source="7tLrLcJMLmvO0vqBCrBO-61" target="7tLrLcJMLmvO0vqBCrBO-16">
          <mxGeometry relative="1" as="geometry" />
        </mxCell>
        <mxCell id="7tLrLcJMLmvO0vqBCrBO-61" value="profilePicture" style="ellipse;whiteSpace=wrap;html=1;fontSize=15;" vertex="1" parent="1">
          <mxGeometry x="980" y="380" width="120" height="80" as="geometry" />
        </mxCell>
        <mxCell id="7tLrLcJMLmvO0vqBCrBO-64" style="edgeStyle=none;orthogonalLoop=1;jettySize=auto;html=1;endArrow=none;fontSize=15;" edge="1" parent="1" source="7tLrLcJMLmvO0vqBCrBO-63" target="7tLrLcJMLmvO0vqBCrBO-16">
          <mxGeometry relative="1" as="geometry" />
        </mxCell>
        <mxCell id="7tLrLcJMLmvO0vqBCrBO-63" value="about" style="ellipse;whiteSpace=wrap;html=1;fontSize=15;" vertex="1" parent="1">
          <mxGeometry x="1030" y="200" width="120" height="80" as="geometry" />
        </mxCell>
        <mxCell id="7tLrLcJMLmvO0vqBCrBO-67" value="country" style="ellipse;whiteSpace=wrap;html=1;fontSize=15;" vertex="1" parent="1">
          <mxGeometry x="960" y="470" width="120" height="80" as="geometry" />
        </mxCell>
        <mxCell id="7tLrLcJMLmvO0vqBCrBO-70" value="state" style="ellipse;whiteSpace=wrap;html=1;" vertex="1" parent="1">
          <mxGeometry x="1060" y="520" width="120" height="80" as="geometry" />
        </mxCell>
        <mxCell id="7tLrLcJMLmvO0vqBCrBO-71" value="city" style="ellipse;whiteSpace=wrap;html=1;fontSize=15;" vertex="1" parent="1">
          <mxGeometry x="1030" y="600" width="120" height="80" as="geometry" />
        </mxCell>
        <mxCell id="7tLrLcJMLmvO0vqBCrBO-73" value="street" style="ellipse;whiteSpace=wrap;html=1;fontSize=15;" vertex="1" parent="1">
          <mxGeometry x="920" y="640" width="120" height="80" as="geometry" />
        </mxCell>
        <mxCell id="7tLrLcJMLmvO0vqBCrBO-75" value="streetNumber" style="ellipse;whiteSpace=wrap;html=1;fontSize=15;" vertex="1" parent="1">
          <mxGeometry x="790" y="640" width="120" height="80" as="geometry" />
        </mxCell>
        <mxCell id="7tLrLcJMLmvO0vqBCrBO-77" value="&lt;u&gt;id&lt;/u&gt;" style="ellipse;whiteSpace=wrap;html=1;rounded=0;fontSize=15;" vertex="1" parent="1">
          <mxGeometry x="690" y="490" width="120" height="80" as="geometry" />
        </mxCell>
        <mxCell id="7tLrLcJMLmvO0vqBCrBO-79" value="content" style="ellipse;whiteSpace=wrap;html=1;rounded=0;fontSize=15;" vertex="1" parent="1">
          <mxGeometry x="670" y="590" width="120" height="80" as="geometry" />
        </mxCell>
        <mxCell id="7tLrLcJMLmvO0vqBCrBO-83" value="postDate" style="ellipse;whiteSpace=wrap;html=1;" vertex="1" parent="1">
          <mxGeometry x="560" y="640" width="120" height="80" as="geometry" />
        </mxCell>
        <mxCell id="7tLrLcJMLmvO0vqBCrBO-85" value="lastEdited" style="ellipse;whiteSpace=wrap;html=1;" vertex="1" parent="1">
          <mxGeometry x="440" y="600" width="120" height="80" as="geometry" />
        </mxCell>
        <mxCell id="7tLrLcJMLmvO0vqBCrBO-86" value="&lt;u&gt;id&lt;/u&gt;" style="ellipse;whiteSpace=wrap;html=1;rounded=0;fontSize=15;" vertex="1" parent="1">
          <mxGeometry x="230" y="280" width="120" height="80" as="geometry" />
        </mxCell>
        <mxCell id="7tLrLcJMLmvO0vqBCrBO-88" value="content" style="ellipse;whiteSpace=wrap;html=1;rounded=0;fontSize=15;" vertex="1" parent="1">
          <mxGeometry x="200" y="370" width="120" height="80" as="geometry" />
        </mxCell>
        <mxCell id="7tLrLcJMLmvO0vqBCrBO-91" value="postDate" style="ellipse;whiteSpace=wrap;html=1;" vertex="1" parent="1">
          <mxGeometry x="200" y="460" width="120" height="80" as="geometry" />
        </mxCell>
        <mxCell id="7tLrLcJMLmvO0vqBCrBO-93" value="lastEdited" style="ellipse;whiteSpace=wrap;html=1;" vertex="1" parent="1">
          <mxGeometry x="220" y="550" width="120" height="80" as="geometry" />
        </mxCell>
      </root>
    </mxGraphModel>
  </diagram>
</mxfile>
